<svg xmlns="http://www.w3.org/2000/svg" viewBox="0 0 160 160" width="100%" height="100%">
  <rect x="0" y="0" width="160" height="160" rx="16" fill="#FFD166" stroke="#190019" stroke-width="6"/>
  
  <circle cx="24" cy="24" r="8" fill="#190019" opacity="0.15"/>
  <circle cx="136" cy="24" r="6" fill="#190019" opacity="0.15"/>
  <rect x="122" y="122" width="18" height="18" rx="4" fill="#190019" opacity="0.15"/>
  
  <path d="M 26 160 C 26 122, 54 112, 80 112 C 106 112, 134 122, 134 160 Z" fill="#EF476F" stroke="#190019" stroke-width="5"/>
  <path d="M 66 120 L 80 136 L 94 120 Z" fill="#06D6A0" stroke="#190019" stroke-width="4"/>
  
  <rect x="44" y="42" width="72" height="78" rx="36" fill="#DFB6A2" stroke="#190019" stroke-width="5"/>
  <circle cx="42" cy="78" r="6.5" fill="#DFB6A2" stroke="#190019" stroke-width="3"/>
  <circle cx="118" cy="78" r="6.5" fill="#DFB6A2" stroke="#190019" stroke-width="3"/>
  <path d="M 80 77 L 76 86 L 83 86" fill="none" stroke="#190019" stroke-width="3.5" stroke-linecap="round"/>
  <circle cx="54" cy="87" r="4.5" fill="#FF6F61" opacity="0.35"/>
  <circle cx="106" cy="87" r="4.5" fill="#FF6F61" opacity="0.35"/>
  <path d="M 70 96 Q 80 106 90 96" fill="none" stroke="#190019" stroke-width="3.5" stroke-linecap="round"/>
  <circle cx="63" cy="73" r="5.5" fill="#190019"/>
  <circle cx="97" cy="73" r="5.5" fill="#190019"/>
  <circle cx="65" cy="71" r="1.8" fill="#FFFFFF"/>
  <circle cx="99" cy="71" r="1.8" fill="#FFFFFF"/>
  <rect x="55" y="62" width="16" height="4" rx="2" fill="#190019"/>
  <rect x="89" y="62" width="16" height="4" rx="2" fill="#190019"/>
  <rect x="44" y="22" width="72" height="28" rx="14" fill="#111111" stroke="#190019" stroke-width="5"/>
    <circle cx="52" cy="26" r="6" fill="#111111"/>
    <circle cx="66" cy="20" r="7" fill="#111111"/>
    <circle cx="80" cy="18" r="7" fill="#111111"/>
    <circle cx="94" cy="20" r="7" fill="#111111"/>
    <circle cx="108" cy="26" r="6" fill="#111111"/>
  
</svg>